<svg xmlns="http://www.w3.org/2000/svg" fill-rule="evenodd" stroke-linejoin="round" stroke-miterlimit="1.4" clip-rule="evenodd" viewBox="0 0 96 96">
  <path fill="#7d84df" fill-rule="nonzero" d="M42,48l0,-6l41.997,0l0,6l-41.997,0Zm41.997,-30l-53.994,0l0,6l53.994,0l0,-6Zm-65.997,18l6,0l0,-30l66,0l0,84l-36,0l0,6l42,0l0,-96l-78,0l0,36Zm12,0l53.997,0l0,-6l-53.997,0l0,6Z"/>
  <clipPath id="a">
    <rect width="42.4" height="42.4" x="2.8" y="50.8"/>
  </clipPath>
  <g fill="#7d84df" fill-rule="nonzero" clip-path="url(#a)">
    <path d="M18.244 74.193c0-.531-.431-.962-.963-.962l-3.36 0c-.531 0-.963.431-.963.962l0 3.36c0 .533.432.963.963.963l3.36 0c.532 0 .963-.43.963-.963l0-3.36zM26.643 74.193c0-.531-.431-.962-.962-.962l-3.361 0c-.532 0-.963.431-.963.962l0 3.36c0 .533.431.963.963.963l3.361 0c.531 0 .962-.43.962-.963l0-3.36zM35.042 74.193c0-.531-.432-.962-.963-.962l-3.36 0c-.532 0-.963.431-.963.962l0 3.36c0 .533.431.963.963.963l3.36 0c.531 0 .963-.43.963-.963l0-3.36zM18.244 82.593c0-.533-.431-.963-.963-.963l-3.36 0c-.531 0-.963.43-.963.963l0 3.359c0 .532.432.962.963.962l3.36 0c.532 0 .963-.43.963-.962l0-3.359zM26.643 82.593c0-.533-.431-.963-.962-.963l-3.361 0c-.532 0-.963.43-.963.963l0 3.359c0 .532.431.962.963.962l3.361 0c.531 0 .962-.43.962-.962l0-3.359zM35.042 82.593c0-.533-.432-.963-.962-.963l-3.361 0c-.532 0-.963.43-.963.963l0 3.359c0 .532.431.962.963.962l3.361 0c.53 0 .962-.43.962-.962l0-3.359z"/>
    <path d="M41.051,55.511l0,5.132c0,2.32 -1.882,4.189 -4.202,4.189l-2.65,0c-2.319,0 -4.226,-1.869 -4.226,-4.189l0,-5.151l-11.946,0l0,5.151c0,2.32 -1.906,4.189 -4.226,4.189l-2.65,0c-2.32,0 -4.201,-1.869 -4.201,-4.189l0,-5.132c-2.028,0.061 -3.693,1.738 -3.693,3.8l0,30.077c0,2.101 1.702,3.826 3.803,3.826l33.88,0c2.098,0 3.803,-1.729 3.803,-3.826l0,-30.077c0,-2.062 -1.665,-3.739 -3.692,-3.8Zm-1.231,32.004c0,0.908 -0.736,1.644 -1.644,1.644l-28.424,0c-0.908,0 -1.644,-0.736 -1.644,-1.644l0,-15.536c0,-0.908 0.736,-1.644 1.644,-1.644l28.423,0c0.909,0 1.645,0.736 1.645,1.644l0,15.536Z"/>
    <path d="M11.141 62.08l2.622 0c.795 0 1.441-.644 1.441-1.439l0-8.414c0-.796-.646-1.441-1.441-1.441l-2.622 0c-.795 0-1.441.645-1.441 1.441l0 8.414c0 .795.646 1.439 1.441 1.439zM34.165 62.08l2.622 0c.795 0 1.44-.644 1.44-1.439l0-8.414c0-.796-.645-1.441-1.44-1.441l-2.622 0c-.795 0-1.44.645-1.44 1.441l0 8.414c0 .795.645 1.439 1.44 1.439z"/>
  </g>
</svg>
